<?xml version="1.0" encoding="UTF-8" standalone="no"?>
<svg
   xmlns:dc="http://purl.org/dc/elements/1.1/"
   xmlns:cc="http://creativecommons.org/ns#"
   xmlns:rdf="http://www.w3.org/1999/02/22-rdf-syntax-ns#"
   xmlns:svg="http://www.w3.org/2000/svg"
   xmlns="http://www.w3.org/2000/svg"
   xmlns:sodipodi="http://sodipodi.sourceforge.net/DTD/sodipodi-0.dtd"
   xmlns:inkscape="http://www.inkscape.org/namespaces/inkscape"
   version="1.1"
   id="svg2"
   viewBox="0 0 744.09448819 1052.3622047"
   height="297mm"
   width="210mm"
   inkscape:version="0.91 r13725"
   sodipodi:docname="imageGrid3d.svg">
  <sodipodi:namedview
     pagecolor="#ffffff"
     bordercolor="#666666"
     borderopacity="1"
     objecttolerance="10"
     gridtolerance="10"
     guidetolerance="10"
     inkscape:pageopacity="0"
     inkscape:pageshadow="2"
     inkscape:window-width="1366"
     inkscape:window-height="701"
     id="namedview105"
     showgrid="false"
     inkscape:zoom="0.44851478"
     inkscape:cx="271.14161"
     inkscape:cy="546.4573"
     inkscape:window-x="-6"
     inkscape:window-y="0"
     inkscape:window-maximized="1"
     inkscape:current-layer="svg2" />
  <defs
     id="defs4" />
  <metadata
     id="metadata7">
    <rdf:RDF>
      <cc:Work
         rdf:about="">
        <dc:format>image/svg+xml</dc:format>
        <dc:type
           rdf:resource="http://purl.org/dc/dcmitype/StillImage" />
        <dc:title />
      </cc:Work>
    </rdf:RDF>
  </metadata>
  <rect
     style="opacity:1;fill:#ff5555;fill-opacity:1;fill-rule:evenodd;stroke:#ff0000;stroke-width:1.0542599;stroke-opacity:1"
     id="rect4412"
     width="40"
     height="44.458569"
     x="327.57791"
     y="420.76172"
     ry="0"
     transform="matrix(1,0,-0.43647939,0.89971426,0,0)" />
  <rect
     style="opacity:1;fill:#ff5555;fill-opacity:1;fill-rule:evenodd;stroke:#ff0000;stroke-width:1.0542599;stroke-opacity:1"
     id="rect4414"
     width="40"
     height="44.458557"
     x="367.57791"
     y="420.76172"
     transform="matrix(1,0,-0.43647939,0.89971426,0,0)" />
  <rect
     style="opacity:1;fill:#ff5555;fill-opacity:1;fill-rule:evenodd;stroke:#ff0000;stroke-width:1.0542599;stroke-opacity:1"
     id="rect4416"
     width="40"
     height="44.458557"
     x="407.57788"
     y="465.22028"
     transform="matrix(1,0,-0.43647939,0.89971426,0,0)" />
  <rect
     style="opacity:1;fill:#ff5555;fill-opacity:1;fill-rule:evenodd;stroke:#ff0000;stroke-width:1.0542599;stroke-opacity:1"
     id="rect4418"
     width="40"
     height="44.458557"
     x="447.57788"
     y="509.67886"
     transform="matrix(1,0,-0.43647939,0.89971426,0,0)" />
  <rect
     style="opacity:1;fill:#ff5555;fill-opacity:1;fill-rule:evenodd;stroke:#ff0000;stroke-width:1.0542599;stroke-opacity:1"
     id="rect4420"
     width="40"
     height="44.458557"
     x="407.57788"
     y="554.13739"
     transform="matrix(1,0,-0.43647939,0.89971426,0,0)" />
  <rect
     style="opacity:1;fill:#ff5555;fill-opacity:1;fill-rule:evenodd;stroke:#ff0000;stroke-width:1.0542599;stroke-opacity:1"
     id="rect4422"
     width="40"
     height="44.458557"
     x="367.57791"
     y="509.67886"
     transform="matrix(1,0,-0.43647939,0.89971426,0,0)" />
  <rect
     style="opacity:1;fill:#ff5555;fill-opacity:1;fill-rule:evenodd;stroke:#ff0000;stroke-width:1.0542599;stroke-opacity:1"
     id="rect4427"
     width="40"
     height="44.458557"
     x="327.57791"
     y="465.22028"
     transform="matrix(1,0,-0.43647939,0.89971426,0,0)" />
  <rect
     style="opacity:1;fill:#ff5555;fill-opacity:1;fill-rule:evenodd;stroke:#ff0000;stroke-width:1.0542599;stroke-opacity:1"
     id="rect4429"
     width="40"
     height="44.458557"
     x="327.57791"
     y="509.67886"
     transform="matrix(1,0,-0.43647939,0.89971426,0,0)" />
  <rect
     style="opacity:1;fill:#ff5555;fill-opacity:1;fill-rule:evenodd;stroke:#ff0000;stroke-width:1.0542599;stroke-opacity:1"
     id="rect4431"
     width="40"
     height="44.458557"
     x="327.57791"
     y="554.13739"
     transform="matrix(1,0,-0.43647939,0.89971426,0,0)" />
  <rect
     style="opacity:1;fill:#ff5555;fill-opacity:1;fill-rule:evenodd;stroke:#ff0000;stroke-width:1.0542599;stroke-opacity:1"
     id="rect4433"
     width="40"
     height="44.458557"
     x="447.57788"
     y="598.59601"
     transform="matrix(1,0,-0.43647939,0.89971426,0,0)" />
  <rect
     style="opacity:1;fill:#ff5555;fill-opacity:1;fill-rule:evenodd;stroke:#ff0000;stroke-width:1.0542599;stroke-opacity:1"
     id="rect4435"
     width="40"
     height="44.458557"
     x="487.57785"
     y="509.67886"
     transform="matrix(1,0,-0.43647939,0.89971426,0,0)" />
  <rect
     style="opacity:1;fill:#ff5555;fill-opacity:1;fill-rule:evenodd;stroke:#ff0000;stroke-width:1.0542599;stroke-opacity:1"
     id="rect4437"
     width="40"
     height="44.458557"
     x="487.57785"
     y="465.22028"
     transform="matrix(1,0,-0.43647939,0.89971426,0,0)" />
  <rect
     style="opacity:1;fill:#ff5555;fill-opacity:1;fill-rule:evenodd;stroke:#ff0000;stroke-width:1.0542599;stroke-opacity:1"
     id="rect4439"
     width="40"
     height="44.458557"
     x="527.57788"
     y="509.67886"
     transform="matrix(1,0,-0.43647939,0.89971426,0,0)" />
  <rect
     style="opacity:1;fill:#ff5555;fill-opacity:1;fill-rule:evenodd;stroke:#ff0000;stroke-width:1.0542599;stroke-opacity:1"
     id="rect4441"
     width="40"
     height="44.458557"
     x="527.57788"
     y="465.22028"
     transform="matrix(1,0,-0.43647939,0.89971426,0,0)" />
  <rect
     style="opacity:1;fill:#ff5555;fill-opacity:1;fill-rule:evenodd;stroke:#ff0000;stroke-width:1.0542599;stroke-opacity:1"
     id="rect4443"
     width="40"
     height="44.458557"
     x="567.57788"
     y="554.13739"
     transform="matrix(1,0,-0.43647939,0.89971426,0,0)" />
  <rect
     style="opacity:1;fill:#ff5555;fill-opacity:1;fill-rule:evenodd;stroke:#ff0000;stroke-width:1.0542599;stroke-opacity:1"
     id="rect4445"
     width="40"
     height="44.458557"
     x="567.57788"
     y="509.67886"
     transform="matrix(1,0,-0.43647939,0.89971426,0,0)" />
  <rect
     style="opacity:1;fill:#ff5555;fill-opacity:1;fill-rule:evenodd;stroke:#ff0000;stroke-width:1.0542599;stroke-opacity:1"
     id="rect4447"
     width="40"
     height="44.458557"
     x="607.57794"
     y="554.13739"
     transform="matrix(1,0,-0.43647939,0.89971426,0,0)" />
  <rect
     style="opacity:1;fill:#ff5555;fill-opacity:1;fill-rule:evenodd;stroke:#ff0000;stroke-width:1.0542599;stroke-opacity:1"
     id="rect4449"
     width="40"
     height="44.458549"
     x="607.57794"
     y="509.67886"
     transform="matrix(1,0,-0.43647939,0.89971426,0,0)" />
  <rect
     style="opacity:1;fill:#ff5555;fill-opacity:1;fill-rule:evenodd;stroke:#ff0000;stroke-width:1.0542599;stroke-opacity:1"
     id="rect4451"
     width="40"
     height="44.458557"
     x="647.57794"
     y="554.13739"
     transform="matrix(1,0,-0.43647939,0.89971426,0,0)" />
  <rect
     style="opacity:1;fill:#ff5555;fill-opacity:1;fill-rule:evenodd;stroke:#ff0000;stroke-width:1.0542599;stroke-opacity:1"
     id="rect4453"
     width="40"
     height="44.458557"
     x="647.57794"
     y="509.67886"
     transform="matrix(1,0,-0.43647939,0.89971426,0,0)" />
  <rect
     style="opacity:1;fill:#ff5555;fill-opacity:1;fill-rule:evenodd;stroke:#ff0000;stroke-width:1.0542599;stroke-opacity:1"
     id="rect4455"
     width="40"
     height="44.458557"
     x="567.57788"
     y="598.59601"
     transform="matrix(1,0,-0.43647939,0.89971426,0,0)" />
  <rect
     style="opacity:1;fill:#ff5555;fill-opacity:1;fill-rule:evenodd;stroke:#ff0000;stroke-width:1.0542599;stroke-opacity:1"
     id="rect4457"
     width="40"
     height="44.458557"
     x="647.57794"
     y="598.59601"
     transform="matrix(1,0,-0.43647939,0.89971426,0,0)" />
  <rect
     style="opacity:1;fill:#ff5555;fill-opacity:1;fill-rule:evenodd;stroke:#ff0000;stroke-width:1.0542599;stroke-opacity:1"
     id="rect4459"
     width="40"
     height="44.458557"
     x="607.57794"
     y="598.59601"
     transform="matrix(1,0,-0.43647939,0.89971426,0,0)" />
  <path
     inkscape:connector-curvature="0"
     style="fill:none;fill-rule:evenodd;stroke:#000000;stroke-width:1px;stroke-linecap:butt;stroke-linejoin:miter;stroke-opacity:1"
     d="m 253.03195,318.56532 -150.39063,310"
     id="path4463" />
  <path
     inkscape:connector-curvature="0"
     style="fill:none;fill-rule:evenodd;stroke:#000000;stroke-width:1px;stroke-linecap:butt;stroke-linejoin:miter;stroke-opacity:1"
     d="m 333.03195,318.56532 -150.39063,310"
     id="path4465" />
  <path
     inkscape:connector-curvature="0"
     style="fill:none;fill-rule:evenodd;stroke:#000000;stroke-width:1px;stroke-linecap:butt;stroke-linejoin:miter;stroke-opacity:1"
     d="m 413.03195,318.56532 -150.39063,310"
     id="path4467" />
  <path
     inkscape:connector-curvature="0"
     style="fill:none;fill-rule:evenodd;stroke:#000000;stroke-width:1px;stroke-linecap:butt;stroke-linejoin:miter;stroke-opacity:1"
     d="m 493.03195,318.56532 -150.39063,310"
     id="path4469" />
  <path
     inkscape:connector-curvature="0"
     style="fill:none;fill-rule:evenodd;stroke:#000000;stroke-width:4;stroke-linecap:butt;stroke-linejoin:miter;stroke-miterlimit:4;stroke-dasharray:none;stroke-opacity:1"
     d="m 568.57279,317.45053 -150.39063,310"
     id="path4471" />
  <path
     inkscape:connector-curvature="0"
     style="fill:none;fill-rule:evenodd;stroke:#000000;stroke-width:1px;stroke-linecap:butt;stroke-linejoin:miter;stroke-opacity:1"
     d="m 123.32934,338.56532 480,0"
     id="path4473" />
  <path
     inkscape:connector-curvature="0"
     style="fill:none;fill-rule:evenodd;stroke:#000000;stroke-width:1px;stroke-linecap:butt;stroke-linejoin:miter;stroke-opacity:1"
     d="m 84.518848,418.56532 480.000002,0"
     id="path4475" />
  <path
     inkscape:connector-curvature="0"
     style="fill:none;fill-rule:evenodd;stroke:#000000;stroke-width:1px;stroke-linecap:butt;stroke-linejoin:miter;stroke-opacity:1"
     d="m 45.70836,498.56532 480,0"
     id="path4477" />
  <path
     inkscape:connector-curvature="0"
     style="fill:none;fill-rule:evenodd;stroke:#000000;stroke-width:4;stroke-linecap:butt;stroke-linejoin:miter;stroke-opacity:1;stroke-miterlimit:4;stroke-dasharray:none"
     d="m 6.89787,578.56532 480,0"
     id="path4479" />
  <path
     inkscape:connector-curvature="0"
     style="fill:none;fill-rule:evenodd;stroke:#000000;stroke-width:1px;stroke-linecap:butt;stroke-linejoin:miter;stroke-opacity:1"
     d="m 173.03195,318.56532 -150.390635,310"
     id="path4481" />
  <rect
     style="opacity:1;fill:#ff5555;fill-opacity:1;fill-rule:evenodd;stroke:#ff0000;stroke-width:1.0542599;stroke-opacity:1"
     id="rect4412-9"
     width="40"
     height="44.458569"
     x="469.43961"
     y="762.13995"
     ry="0"
     transform="matrix(1,0,-0.43647939,0.89971426,0,0)" />
  <rect
     style="opacity:1;fill:#ff5555;fill-opacity:1;fill-rule:evenodd;stroke:#ff0000;stroke-width:1.0542599;stroke-opacity:1"
     id="rect4414-4"
     width="40"
     height="44.458557"
     x="509.43961"
     y="762.13995"
     transform="matrix(1,0,-0.43647939,0.89971426,0,0)" />
  <rect
     style="opacity:1;fill:#ff5555;fill-opacity:1;fill-rule:evenodd;stroke:#ff0000;stroke-width:1.0542599;stroke-opacity:1"
     id="rect4416-5"
     width="40"
     height="44.458557"
     x="549.43958"
     y="806.59851"
     transform="matrix(1,0,-0.43647939,0.89971426,0,0)" />
  <rect
     style="opacity:1;fill:#ff5555;fill-opacity:1;fill-rule:evenodd;stroke:#ff0000;stroke-width:1.0542599;stroke-opacity:1"
     id="rect4418-9"
     width="40"
     height="44.458557"
     x="589.43964"
     y="851.05707"
     transform="matrix(1,0,-0.43647939,0.89971426,0,0)" />
  <rect
     style="opacity:1;fill:#ff5555;fill-opacity:1;fill-rule:evenodd;stroke:#ff0000;stroke-width:1.0542599;stroke-opacity:1"
     id="rect4420-0"
     width="40"
     height="44.458557"
     x="549.43958"
     y="895.51562"
     transform="matrix(1,0,-0.43647939,0.89971426,0,0)" />
  <rect
     style="opacity:1;fill:#ff5555;fill-opacity:1;fill-rule:evenodd;stroke:#ff0000;stroke-width:1.0542599;stroke-opacity:1"
     id="rect4422-9"
     width="40"
     height="44.458557"
     x="509.43961"
     y="851.05707"
     transform="matrix(1,0,-0.43647939,0.89971426,0,0)" />
  <rect
     style="opacity:1;fill:#ff5555;fill-opacity:1;fill-rule:evenodd;stroke:#ff0000;stroke-width:1.0542599;stroke-opacity:1"
     id="rect4427-8"
     width="40"
     height="44.458557"
     x="469.43961"
     y="806.59851"
     transform="matrix(1,0,-0.43647939,0.89971426,0,0)" />
  <rect
     style="opacity:1;fill:#ff5555;fill-opacity:1;fill-rule:evenodd;stroke:#ff0000;stroke-width:1.0542599;stroke-opacity:1"
     id="rect4429-1"
     width="40"
     height="44.458557"
     x="469.43961"
     y="851.05707"
     transform="matrix(1,0,-0.43647939,0.89971426,0,0)" />
  <rect
     style="opacity:1;fill:#ff5555;fill-opacity:1;fill-rule:evenodd;stroke:#ff0000;stroke-width:1.0542599;stroke-opacity:1"
     id="rect4431-7"
     width="40"
     height="44.458557"
     x="469.43961"
     y="895.51562"
     transform="matrix(1,0,-0.43647939,0.89971426,0,0)" />
  <rect
     style="opacity:1;fill:#ff5555;fill-opacity:1;fill-rule:evenodd;stroke:#ff0000;stroke-width:1.0542599;stroke-opacity:1"
     id="rect4433-4"
     width="40"
     height="44.458557"
     x="589.43964"
     y="939.97418"
     transform="matrix(1,0,-0.43647939,0.89971426,0,0)" />
  <rect
     style="opacity:1;fill:#ff5555;fill-opacity:1;fill-rule:evenodd;stroke:#ff0000;stroke-width:1.0542599;stroke-opacity:1"
     id="rect4435-5"
     width="40"
     height="44.458557"
     x="629.43958"
     y="851.05707"
     transform="matrix(1,0,-0.43647939,0.89971426,0,0)" />
  <rect
     style="opacity:1;fill:#ff5555;fill-opacity:1;fill-rule:evenodd;stroke:#ff0000;stroke-width:1.0542599;stroke-opacity:1"
     id="rect4437-3"
     width="40"
     height="44.458557"
     x="629.43958"
     y="806.59851"
     transform="matrix(1,0,-0.43647939,0.89971426,0,0)" />
  <rect
     style="opacity:1;fill:#ff5555;fill-opacity:1;fill-rule:evenodd;stroke:#ff0000;stroke-width:1.0542599;stroke-opacity:1"
     id="rect4439-4"
     width="40"
     height="44.458557"
     x="669.43958"
     y="851.05707"
     transform="matrix(1,0,-0.43647939,0.89971426,0,0)" />
  <rect
     style="opacity:1;fill:#ff5555;fill-opacity:1;fill-rule:evenodd;stroke:#ff0000;stroke-width:1.0542599;stroke-opacity:1"
     id="rect4441-5"
     width="40"
     height="44.458557"
     x="669.43958"
     y="806.59851"
     transform="matrix(1,0,-0.43647939,0.89971426,0,0)" />
  <rect
     style="opacity:1;fill:#ff5555;fill-opacity:1;fill-rule:evenodd;stroke:#ff0000;stroke-width:1.0542599;stroke-opacity:1"
     id="rect4443-7"
     width="40"
     height="44.458557"
     x="709.43958"
     y="895.51562"
     transform="matrix(1,0,-0.43647939,0.89971426,0,0)" />
  <rect
     style="opacity:1;fill:#ff5555;fill-opacity:1;fill-rule:evenodd;stroke:#ff0000;stroke-width:1.0542599;stroke-opacity:1"
     id="rect4445-3"
     width="40"
     height="44.458557"
     x="709.43958"
     y="851.05707"
     transform="matrix(1,0,-0.43647939,0.89971426,0,0)" />
  <rect
     style="opacity:1;fill:#ff5555;fill-opacity:1;fill-rule:evenodd;stroke:#ff0000;stroke-width:1.0542599;stroke-opacity:1"
     id="rect4447-7"
     width="40"
     height="44.458557"
     x="749.43964"
     y="895.51562"
     transform="matrix(1,0,-0.43647939,0.89971426,0,0)" />
  <rect
     style="opacity:1;fill:#ff5555;fill-opacity:1;fill-rule:evenodd;stroke:#ff0000;stroke-width:1.0542599;stroke-opacity:1"
     id="rect4449-2"
     width="40"
     height="44.458549"
     x="749.43964"
     y="851.05707"
     transform="matrix(1,0,-0.43647939,0.89971426,0,0)" />
  <rect
     style="opacity:1;fill:#ff5555;fill-opacity:1;fill-rule:evenodd;stroke:#ff0000;stroke-width:1.0542599;stroke-opacity:1"
     id="rect4451-5"
     width="40"
     height="44.458557"
     x="789.43964"
     y="895.51562"
     transform="matrix(1,0,-0.43647939,0.89971426,0,0)" />
  <rect
     style="opacity:1;fill:#ff5555;fill-opacity:1;fill-rule:evenodd;stroke:#ff0000;stroke-width:1.0542599;stroke-opacity:1"
     id="rect4453-8"
     width="40"
     height="44.458557"
     x="789.43964"
     y="851.05707"
     transform="matrix(1,0,-0.43647939,0.89971426,0,0)" />
  <rect
     style="opacity:1;fill:#ff5555;fill-opacity:1;fill-rule:evenodd;stroke:#ff0000;stroke-width:1.0542599;stroke-opacity:1"
     id="rect4455-9"
     width="40"
     height="44.458557"
     x="709.43958"
     y="939.97418"
     transform="matrix(1,0,-0.43647939,0.89971426,0,0)" />
  <rect
     style="opacity:1;fill:#ff5555;fill-opacity:1;fill-rule:evenodd;stroke:#ff0000;stroke-width:1.0542599;stroke-opacity:1"
     id="rect4457-5"
     width="40"
     height="44.458557"
     x="789.43964"
     y="939.97418"
     transform="matrix(1,0,-0.43647939,0.89971426,0,0)" />
  <rect
     style="opacity:1;fill:#ff5555;fill-opacity:1;fill-rule:evenodd;stroke:#ff0000;stroke-width:1.0542599;stroke-opacity:1"
     id="rect4459-0"
     width="40"
     height="44.458557"
     x="749.43964"
     y="939.97418"
     transform="matrix(1,0,-0.43647939,0.89971426,0,0)" />
  <path
     inkscape:connector-curvature="0"
     style="fill:none;fill-rule:evenodd;stroke:#000000;stroke-width:1px;stroke-linecap:butt;stroke-linejoin:miter;stroke-opacity:1"
     d="m 245.88909,625.70818 -150.390629,310"
     id="path4463-6" />
  <path
     inkscape:connector-curvature="0"
     style="fill:none;fill-rule:evenodd;stroke:#000000;stroke-width:1px;stroke-linecap:butt;stroke-linejoin:miter;stroke-opacity:1"
     d="m 325.88909,625.70818 -150.39063,310"
     id="path4465-1" />
  <path
     inkscape:connector-curvature="0"
     style="fill:none;fill-rule:evenodd;stroke:#000000;stroke-width:1px;stroke-linecap:butt;stroke-linejoin:miter;stroke-opacity:1"
     d="m 405.88909,625.70818 -150.39063,310"
     id="path4467-4" />
  <path
     inkscape:connector-curvature="0"
     style="fill:none;fill-rule:evenodd;stroke:#000000;stroke-width:1px;stroke-linecap:butt;stroke-linejoin:miter;stroke-opacity:1"
     d="m 485.88909,625.70818 -150.39063,310"
     id="path4469-8" />
  <path
     inkscape:connector-curvature="0"
     style="fill:none;fill-rule:evenodd;stroke:#000000;stroke-width:4;stroke-linecap:butt;stroke-linejoin:miter;stroke-opacity:1;stroke-miterlimit:4;stroke-dasharray:none"
     d="m 565.88909,625.70818 -150.39063,310"
     id="path4471-5" />
  <path
     inkscape:connector-curvature="0"
     style="fill:none;fill-rule:evenodd;stroke:#000000;stroke-width:1px;stroke-linecap:butt;stroke-linejoin:miter;stroke-opacity:1"
     d="m 116.18648,645.70818 480,0"
     id="path4473-0" />
  <path
     inkscape:connector-curvature="0"
     style="fill:none;fill-rule:evenodd;stroke:#000000;stroke-width:1px;stroke-linecap:butt;stroke-linejoin:miter;stroke-opacity:1"
     d="m 77.375991,725.70818 479.999999,0"
     id="path4475-5" />
  <path
     inkscape:connector-curvature="0"
     style="fill:none;fill-rule:evenodd;stroke:#000000;stroke-width:1px;stroke-linecap:butt;stroke-linejoin:miter;stroke-opacity:1"
     d="m 38.565501,805.70818 479.999999,0"
     id="path4477-9" />
  <path
     inkscape:connector-curvature="0"
     style="fill:none;fill-rule:evenodd;stroke:#000000;stroke-width:4;stroke-linecap:butt;stroke-linejoin:miter;stroke-opacity:1;stroke-miterlimit:4;stroke-dasharray:none"
     d="m -0.244987,885.70818 479.999997,0"
     id="path4479-9" />
  <path
     inkscape:connector-curvature="0"
     style="fill:none;fill-rule:evenodd;stroke:#000000;stroke-width:1px;stroke-linecap:butt;stroke-linejoin:miter;stroke-opacity:1"
     d="m 165.88909,625.70818 -150.390632,310"
     id="path4481-1" />
  <rect
     style="opacity:1;fill:#ff5555;fill-opacity:1;fill-rule:evenodd;stroke:#ff0000;stroke-width:1.0542599;stroke-opacity:1"
     id="rect4412-4"
     width="40"
     height="44.458569"
     x="169.39384"
     y="71.444466"
     ry="0"
     transform="matrix(1,0,-0.43647939,0.89971426,0,0)" />
  <rect
     style="opacity:1;fill:#ff5555;fill-opacity:1;fill-rule:evenodd;stroke:#ff0000;stroke-width:1.0542599;stroke-opacity:1"
     id="rect4414-9"
     width="40"
     height="44.458557"
     x="209.39384"
     y="71.444466"
     transform="matrix(1,0,-0.43647939,0.89971426,0,0)" />
  <rect
     style="opacity:1;fill:#ff5555;fill-opacity:1;fill-rule:evenodd;stroke:#ff0000;stroke-width:1.0542599;stroke-opacity:1"
     id="rect4416-1"
     width="40"
     height="44.458557"
     x="249.39383"
     y="115.90302"
     transform="matrix(1,0,-0.43647939,0.89971426,0,0)" />
  <rect
     style="opacity:1;fill:#ff5555;fill-opacity:1;fill-rule:evenodd;stroke:#ff0000;stroke-width:1.0542599;stroke-opacity:1"
     id="rect4418-5"
     width="40"
     height="44.458557"
     x="289.39383"
     y="160.36165"
     transform="matrix(1,0,-0.43647939,0.89971426,0,0)" />
  <rect
     style="opacity:1;fill:#ff5555;fill-opacity:1;fill-rule:evenodd;stroke:#ff0000;stroke-width:1.0542599;stroke-opacity:1"
     id="rect4420-7"
     width="40"
     height="44.458557"
     x="249.39383"
     y="204.82018"
     transform="matrix(1,0,-0.43647939,0.89971426,0,0)" />
  <rect
     style="opacity:1;fill:#ff5555;fill-opacity:1;fill-rule:evenodd;stroke:#ff0000;stroke-width:1.0542599;stroke-opacity:1"
     id="rect4422-4"
     width="40"
     height="44.458557"
     x="209.39384"
     y="160.36165"
     transform="matrix(1,0,-0.43647939,0.89971426,0,0)" />
  <rect
     style="opacity:1;fill:#ff5555;fill-opacity:1;fill-rule:evenodd;stroke:#ff0000;stroke-width:1.0542599;stroke-opacity:1"
     id="rect4427-2"
     width="40"
     height="44.458557"
     x="169.39384"
     y="115.90302"
     transform="matrix(1,0,-0.43647939,0.89971426,0,0)" />
  <rect
     style="opacity:1;fill:#ff5555;fill-opacity:1;fill-rule:evenodd;stroke:#ff0000;stroke-width:1.0542599;stroke-opacity:1"
     id="rect4429-2"
     width="40"
     height="44.458557"
     x="169.39384"
     y="160.36165"
     transform="matrix(1,0,-0.43647939,0.89971426,0,0)" />
  <rect
     style="opacity:1;fill:#ff5555;fill-opacity:1;fill-rule:evenodd;stroke:#ff0000;stroke-width:1.0542599;stroke-opacity:1"
     id="rect4431-9"
     width="40"
     height="44.458557"
     x="169.39384"
     y="204.82018"
     transform="matrix(1,0,-0.43647939,0.89971426,0,0)" />
  <rect
     style="opacity:1;fill:#ff5555;fill-opacity:1;fill-rule:evenodd;stroke:#ff0000;stroke-width:1.0542599;stroke-opacity:1"
     id="rect4433-8"
     width="40"
     height="44.458557"
     x="289.39383"
     y="249.27876"
     transform="matrix(1,0,-0.43647939,0.89971426,0,0)" />
  <rect
     style="opacity:1;fill:#ff5555;fill-opacity:1;fill-rule:evenodd;stroke:#ff0000;stroke-width:1.0542599;stroke-opacity:1"
     id="rect4435-6"
     width="40"
     height="44.458557"
     x="329.3938"
     y="160.36165"
     transform="matrix(1,0,-0.43647939,0.89971426,0,0)" />
  <rect
     style="opacity:1;fill:#ff5555;fill-opacity:1;fill-rule:evenodd;stroke:#ff0000;stroke-width:1.0542599;stroke-opacity:1"
     id="rect4437-7"
     width="40"
     height="44.458557"
     x="329.3938"
     y="115.90302"
     transform="matrix(1,0,-0.43647939,0.89971426,0,0)" />
  <rect
     style="opacity:1;fill:#ff5555;fill-opacity:1;fill-rule:evenodd;stroke:#ff0000;stroke-width:1.0542599;stroke-opacity:1"
     id="rect4439-5"
     width="40"
     height="44.458557"
     x="369.3938"
     y="160.36165"
     transform="matrix(1,0,-0.43647939,0.89971426,0,0)" />
  <rect
     style="opacity:1;fill:#ff5555;fill-opacity:1;fill-rule:evenodd;stroke:#ff0000;stroke-width:1.0542599;stroke-opacity:1"
     id="rect4441-1"
     width="40"
     height="44.458557"
     x="369.3938"
     y="115.90302"
     transform="matrix(1,0,-0.43647939,0.89971426,0,0)" />
  <rect
     style="opacity:1;fill:#ff5555;fill-opacity:1;fill-rule:evenodd;stroke:#ff0000;stroke-width:1.0542599;stroke-opacity:1"
     id="rect4443-6"
     width="40"
     height="44.458557"
     x="409.3938"
     y="204.82018"
     transform="matrix(1,0,-0.43647939,0.89971426,0,0)" />
  <rect
     style="opacity:1;fill:#ff5555;fill-opacity:1;fill-rule:evenodd;stroke:#ff0000;stroke-width:1.0542599;stroke-opacity:1"
     id="rect4445-0"
     width="40"
     height="44.458557"
     x="409.3938"
     y="160.36165"
     transform="matrix(1,0,-0.43647939,0.89971426,0,0)" />
  <rect
     style="opacity:1;fill:#ff5555;fill-opacity:1;fill-rule:evenodd;stroke:#ff0000;stroke-width:1.0542599;stroke-opacity:1"
     id="rect4447-9"
     width="40"
     height="44.458557"
     x="449.39386"
     y="204.82018"
     transform="matrix(1,0,-0.43647939,0.89971426,0,0)" />
  <rect
     style="opacity:1;fill:#ff5555;fill-opacity:1;fill-rule:evenodd;stroke:#ff0000;stroke-width:1.0542599;stroke-opacity:1"
     id="rect4449-4"
     width="40"
     height="44.458549"
     x="449.39386"
     y="160.36165"
     transform="matrix(1,0,-0.43647939,0.89971426,0,0)" />
  <rect
     style="opacity:1;fill:#ff5555;fill-opacity:1;fill-rule:evenodd;stroke:#ff0000;stroke-width:1.0542599;stroke-opacity:1"
     id="rect4451-1"
     width="40"
     height="44.458557"
     x="489.39389"
     y="204.82018"
     transform="matrix(1,0,-0.43647939,0.89971426,0,0)" />
  <rect
     style="opacity:1;fill:#ff5555;fill-opacity:1;fill-rule:evenodd;stroke:#ff0000;stroke-width:1.0542599;stroke-opacity:1"
     id="rect4453-4"
     width="40"
     height="44.458557"
     x="489.39389"
     y="160.36165"
     transform="matrix(1,0,-0.43647939,0.89971426,0,0)" />
  <rect
     style="opacity:1;fill:#ff5555;fill-opacity:1;fill-rule:evenodd;stroke:#ff0000;stroke-width:1.0542599;stroke-opacity:1"
     id="rect4455-6"
     width="40"
     height="44.458557"
     x="409.3938"
     y="249.27876"
     transform="matrix(1,0,-0.43647939,0.89971426,0,0)" />
  <rect
     style="opacity:1;fill:#ff5555;fill-opacity:1;fill-rule:evenodd;stroke:#ff0000;stroke-width:1.0542599;stroke-opacity:1"
     id="rect4457-7"
     width="40"
     height="44.458557"
     x="489.39389"
     y="249.27876"
     transform="matrix(1,0,-0.43647939,0.89971426,0,0)" />
  <rect
     style="opacity:1;fill:#ff5555;fill-opacity:1;fill-rule:evenodd;stroke:#ff0000;stroke-width:1.0542599;stroke-opacity:1"
     id="rect4459-5"
     width="40"
     height="44.458557"
     x="449.39386"
     y="249.27876"
     transform="matrix(1,0,-0.43647939,0.89971426,0,0)" />
  <path
     inkscape:connector-curvature="0"
     style="fill:none;fill-rule:evenodd;stroke:#000000;stroke-width:4;stroke-linecap:butt;stroke-linejoin:miter;stroke-opacity:1;stroke-miterlimit:4;stroke-dasharray:none"
     d="m 247.31767,4.27961 -150.390638,310"
     id="path4463-2" />
  <path
     inkscape:connector-curvature="0"
     style="fill:none;fill-rule:evenodd;stroke:#000000;stroke-width:4;stroke-linecap:butt;stroke-linejoin:miter;stroke-opacity:1;stroke-miterlimit:4;stroke-dasharray:none"
     d="m 327.31767,4.27961 -150.39064,310"
     id="path4465-5" />
  <path
     inkscape:connector-curvature="0"
     style="fill:none;fill-rule:evenodd;stroke:#000000;stroke-width:4;stroke-linecap:butt;stroke-linejoin:miter;stroke-opacity:1;stroke-miterlimit:4;stroke-dasharray:none"
     d="m 407.31766,4.27961 -150.39062,310"
     id="path4467-3" />
  <path
     inkscape:connector-curvature="0"
     style="fill:none;fill-rule:evenodd;stroke:#000000;stroke-width:4;stroke-linecap:butt;stroke-linejoin:miter;stroke-opacity:1;stroke-miterlimit:4;stroke-dasharray:none"
     d="m 487.31766,4.27961 -150.39062,310"
     id="path4469-3" />
  <path
     inkscape:connector-curvature="0"
     style="fill:none;fill-rule:evenodd;stroke:#000000;stroke-width:4;stroke-linecap:butt;stroke-linejoin:miter;stroke-opacity:1;stroke-miterlimit:4;stroke-dasharray:none"
     d="m 567.31766,4.27961 -150.39063,310"
     id="path4471-2" />
  <path
     inkscape:connector-curvature="0"
     style="fill:none;fill-rule:evenodd;stroke:#000000;stroke-width:4;stroke-linecap:butt;stroke-linejoin:miter;stroke-opacity:1;stroke-miterlimit:4;stroke-dasharray:none"
     d="m 117.61505,24.27961 480,0"
     id="path4473-2" />
  <path
     inkscape:connector-curvature="0"
     style="fill:none;fill-rule:evenodd;stroke:#000000;stroke-width:4;stroke-linecap:butt;stroke-linejoin:miter;stroke-opacity:1;stroke-miterlimit:4;stroke-dasharray:none"
     d="m 78.804562,104.27961 479.999998,0"
     id="path4475-2" />
  <path
     inkscape:connector-curvature="0"
     style="fill:none;fill-rule:evenodd;stroke:#000000;stroke-width:4;stroke-linecap:butt;stroke-linejoin:miter;stroke-opacity:1;stroke-miterlimit:4;stroke-dasharray:none"
     d="m 39.994072,184.27961 479.999998,0"
     id="path4477-3" />
  <path
     inkscape:connector-curvature="0"
     style="fill:none;fill-rule:evenodd;stroke:#000000;stroke-width:4;stroke-linecap:butt;stroke-linejoin:miter;stroke-opacity:1;stroke-miterlimit:4;stroke-dasharray:none"
     d="m 1.183582,264.27961 479.999998,0"
     id="path4479-8" />
  <path
     inkscape:connector-curvature="0"
     style="fill:none;fill-rule:evenodd;stroke:#000000;stroke-width:4;stroke-linecap:butt;stroke-linejoin:miter;stroke-opacity:1;stroke-miterlimit:4;stroke-dasharray:none"
     d="m 167.31766,4.27961 -150.390628,310"
     id="path4481-3" />
  <path
     style="fill:none;fill-rule:evenodd;stroke:#000000;stroke-width:4;stroke-linecap:butt;stroke-linejoin:miter;stroke-opacity:1;stroke-miterlimit:4;stroke-dasharray:none"
     d="M 40.132457,916.35777 37.902876,225.18767"
     id="path3435"
     inkscape:connector-curvature="0" />
  <path
     style="fill:none;fill-rule:evenodd;stroke:#000000;stroke-width:4;stroke-linecap:butt;stroke-linejoin:miter;stroke-opacity:1;stroke-miterlimit:4;stroke-dasharray:none"
     d="m 113.70863,234.106 6.68874,704.54758"
     id="path3437"
     inkscape:connector-curvature="0" />
  <path
     style="fill:none;fill-rule:evenodd;stroke:#000000;stroke-width:4;stroke-linecap:butt;stroke-linejoin:miter;stroke-opacity:1;stroke-miterlimit:4;stroke-dasharray:none"
     d="M 196.20312,231.87642 200.66228,936.424"
     id="path3439"
     inkscape:connector-curvature="0" />
  <path
     style="fill:none;fill-rule:evenodd;stroke:#000000;stroke-width:4;stroke-linecap:butt;stroke-linejoin:miter;stroke-opacity:1;stroke-miterlimit:4;stroke-dasharray:none"
     d="m 278.69762,227.41726 -2.22958,715.69548"
     id="path3441"
     inkscape:connector-curvature="0" />
  <path
     style="fill:none;fill-rule:evenodd;stroke:#000000;stroke-width:4;stroke-linecap:butt;stroke-linejoin:miter;stroke-opacity:1;stroke-miterlimit:4;stroke-dasharray:none"
     d="m 358.96253,216.26935 2.22958,729.07297"
     id="path3443"
     inkscape:connector-curvature="0" />
  <path
     style="fill:none;fill-rule:evenodd;stroke:#000000;stroke-width:4;stroke-linecap:butt;stroke-linejoin:miter;stroke-opacity:1;stroke-miterlimit:4;stroke-dasharray:none"
     d="m 439.22745,220.72851 0,720.15465"
     id="path3445"
     inkscape:connector-curvature="0" />
  <path
     style="fill:none;fill-rule:evenodd;stroke:#000000;stroke-width:4;stroke-linecap:butt;stroke-linejoin:miter;stroke-opacity:1;stroke-miterlimit:4;stroke-dasharray:none"
     d="m 555.16565,-2.2295815 0,702.3180015"
     id="path3447"
     inkscape:connector-curvature="0" />
  <path
     style="fill:none;fill-rule:evenodd;stroke:#000000;stroke-width:4.00310755;stroke-linecap:butt;stroke-linejoin:miter;stroke-miterlimit:4;stroke-dasharray:none;stroke-opacity:1"
     d="m 518.3777,68.002076 8.91806,705.662664"
     id="path3449"
     inkscape:connector-curvature="0" />
  <path
     style="fill:none;fill-rule:evenodd;stroke:#000000;stroke-width:4;stroke-linecap:butt;stroke-linejoin:miter;stroke-opacity:1;stroke-miterlimit:4;stroke-dasharray:none"
     d="m 472.67116,140.4636 8.91832,722.38422"
     id="path3451"
     inkscape:connector-curvature="0" />
  <path
     style="fill:none;fill-rule:evenodd;stroke:#000000;stroke-width:1px;stroke-linecap:butt;stroke-linejoin:miter;stroke-opacity:1"
     d="M 80.264914,822.71537 82.494495,149.38192"
     id="path3457"
     inkscape:connector-curvature="0" />
  <path
     style="fill:none;fill-rule:evenodd;stroke:#000000;stroke-width:1px;stroke-linecap:butt;stroke-linejoin:miter;stroke-opacity:1"
     d="m 116.66483,78.053189 c 0,190.762771 -1.57655,192.339321 -1.57655,192.339321"
     id="path3463"
     inkscape:connector-curvature="0" />
  <path
     style="fill:none;fill-rule:evenodd;stroke:#000000;stroke-width:1px;stroke-linecap:butt;stroke-linejoin:miter;stroke-opacity:1"
     d="m 159.23173,2.3787028 c 0,671.6110672 0,671.6110672 0,671.6110672"
     id="path3465"
     inkscape:connector-curvature="0" />
  <path
     inkscape:connector-curvature="0"
     style="fill:none;fill-rule:evenodd;stroke:#000000;stroke-width:4;stroke-linecap:butt;stroke-linejoin:miter;stroke-miterlimit:4;stroke-dasharray:none;stroke-opacity:1"
     d="m 565.50293,170.57182 -150.39064,310"
     id="path4471-50" />
  <path
     inkscape:connector-curvature="0"
     style="fill:none;fill-rule:evenodd;stroke:#000000;stroke-width:4;stroke-linecap:butt;stroke-linejoin:miter;stroke-miterlimit:4;stroke-dasharray:none;stroke-opacity:1"
     d="m 573.38568,470.11667 -150.39063,310"
     id="path4471-8" />
  <path
     inkscape:connector-curvature="0"
     style="fill:none;fill-rule:evenodd;stroke:#000000;stroke-width:4;stroke-linecap:butt;stroke-linejoin:miter;stroke-miterlimit:4;stroke-dasharray:none;stroke-opacity:1"
     d="m 9.7130611,421.3908 480.0000089,0"
     id="path4479-8-7" />
  <path
     inkscape:connector-curvature="0"
     style="fill:none;fill-rule:evenodd;stroke:#000000;stroke-width:4;stroke-linecap:butt;stroke-linejoin:miter;stroke-miterlimit:4;stroke-dasharray:none;stroke-opacity:1"
     d="m -1.4348426,729.07296 480.0000026,0"
     id="path4479-8-5" />
</svg>
