<?xml version="1.0" encoding="UTF-8" standalone="no"?>
<!DOCTYPE svg PUBLIC "-//W3C//DTD SVG 1.0//EN" "http://www.w3.org/TR/2001/PR-SVG-20010719/DTD/svg10.dtd">
<svg width="29cm" height="60cm" viewBox="175 -82 577 1183" xmlns="http://www.w3.org/2000/svg" xmlns:xlink="http://www.w3.org/1999/xlink">
  <g>
    <rect style="fill: #ffcece" x="360" y="160" width="200" height="120"/>
    <rect style="fill: none; fill-opacity:0; stroke-width: 2; stroke: #000000" x="360" y="160" width="200" height="120"/>
  </g>
  <g>
    <rect style="fill: #f6f6b9" x="560" y="160" width="40" height="120"/>
    <rect style="fill: none; fill-opacity:0; stroke-width: 2; stroke: #000000" x="560" y="160" width="40" height="120"/>
  </g>
  <g>
    <rect style="fill: #ffcece" x="360" y="300" width="200" height="120"/>
    <rect style="fill: none; fill-opacity:0; stroke-width: 2; stroke: #000000" x="360" y="300" width="200" height="120"/>
  </g>
  <g>
    <rect style="fill: #f6f6b9" x="360" y="420" width="200" height="40"/>
    <rect style="fill: none; fill-opacity:0; stroke-width: 2; stroke: #000000" x="360" y="420" width="200" height="40"/>
  </g>
  <g>
    <rect style="fill: #ffcece" x="360" y="520" width="200" height="120"/>
    <rect style="fill: none; fill-opacity:0; stroke-width: 2; stroke: #000000" x="360" y="520" width="200" height="120"/>
  </g>
  <g>
    <rect style="fill: #c8c8ff" x="360" y="740" width="160" height="100"/>
    <rect style="fill: none; fill-opacity:0; stroke-width: 2; stroke: #000000" x="360" y="740" width="160" height="100"/>
  </g>
  <g>
    <polygon style="fill: #ffffff" points="520,740 560,740 560,860 540,860 360,860 360,840 520,840 "/>
    <polygon style="fill: none; fill-opacity:0; stroke-width: 2; stroke-dasharray: 4; stroke: #000000" points="520,740 560,740 560,860 540,860 360,860 360,840 520,840 "/>
  </g>
  <g>
    <rect style="fill: #c8c8ff" x="360" y="920" width="160" height="120"/>
    <rect style="fill: none; fill-opacity:0; stroke-width: 2; stroke: #000000" x="360" y="920" width="160" height="120"/>
  </g>
  <g>
    <rect style="fill: #ffffff" x="520" y="920" width="40" height="120"/>
    <rect style="fill: none; fill-opacity:0; stroke-width: 2; stroke-dasharray: 4; stroke: #000000" x="520" y="920" width="40" height="120"/>
  </g>
  <g>
    <rect style="fill: #f6f6b9" x="360" y="1040" width="160" height="60"/>
    <rect style="fill: none; fill-opacity:0; stroke-width: 2; stroke: #000000" x="360" y="1040" width="160" height="60"/>
  </g>
  <g>
    <rect style="fill: #ffcece" x="360" y="-20" width="200" height="120"/>
    <rect style="fill: none; fill-opacity:0; stroke-width: 2; stroke: #000000" x="360" y="-20" width="200" height="120"/>
  </g>
  <path style="fill: none; fill-opacity:0; stroke-width: 2; stroke: #000000" d="M 580 136 C 580,160 600,140 600,156"/>
  <path style="fill: none; fill-opacity:0; stroke-width: 2; stroke: #000000" d="M 580 136 C 580,160 560,140 560,156"/>
  <text font-size="14.1111" style="fill: #000000;text-anchor:start;font-family:sans-serif;font-style:normal;font-weight:normal" x="520" y="132">
    <tspan x="520" y="132">xcropEnd - xImage &gt; 0</tspan>
  </text>
  <text font-size="14.1111" style="fill: #000000;text-anchor:start;font-family:sans-serif;font-style:normal;font-weight:normal" x="490" y="710">
    <tspan x="490" y="710">xcropEnd - xImage &lt; 0</tspan>
  </text>
  <path style="fill: none; fill-opacity:0; stroke-width: 2; stroke: #000000" d="M 460 -66 C 460,-26 560,-66 560,-26"/>
  <path style="fill: none; fill-opacity:0; stroke-width: 2; stroke: #000000" d="M 460 -66 C 460,-26 360,-66 360,-26"/>
  <text font-size="14.1111" style="fill: #000000;text-anchor:start;font-family:sans-serif;font-style:normal;font-weight:normal" x="440" y="-68">
    <tspan x="440" y="-68">xImage</tspan>
  </text>
  <path style="fill: none; fill-opacity:0; stroke-width: 2; stroke: #000000" d="M 568 -20 C 588,-20 568,40 588,40"/>
  <path style="fill: none; fill-opacity:0; stroke-width: 2; stroke: #000000" d="M 588 40 C 568,40 588,100 568,100"/>
  <text font-size="14.1111" style="fill: #000000;text-anchor:start;font-family:sans-serif;font-style:normal;font-weight:normal" x="592" y="40">
    <tspan x="592" y="40">yImage</tspan>
  </text>
  <path style="fill: none; fill-opacity:0; stroke-width: 2; stroke: #000000" d="M 540 714 C 540,738 560,716 560,734"/>
  <path style="fill: none; fill-opacity:0; stroke-width: 2; stroke: #000000" d="M 540 714 C 540,738 520,716 520,734"/>
  <path style="fill: none; fill-opacity:0; stroke-width: 2; stroke: #000000" d="M 568 420 C 588,420 564,440 584,440"/>
  <path style="fill: none; fill-opacity:0; stroke-width: 2; stroke: #000000" d="M 584 440 C 564,440 588,460 568,460"/>
  <text font-size="14.1111" style="fill: #000000;text-anchor:start;font-family:sans-serif;font-style:normal;font-weight:normal" x="590" y="440">
    <tspan x="590" y="440">ycropEnd - yImage &gt; 0</tspan>
  </text>
  <path style="fill: none; fill-opacity:0; stroke-width: 2; stroke: #000000" d="M 352 640 C 340,640 356,660 340,660"/>
  <path style="fill: none; fill-opacity:0; stroke-width: 2; stroke: #000000" d="M 340 660 C 352,660 340,680 352,680"/>
  <text font-size="14.1111" style="fill: #000000;text-anchor:start;font-family:sans-serif;font-style:normal;font-weight:normal" x="176" y="664">
    <tspan x="176" y="664">ycropEnd - yImage &gt; 0</tspan>
  </text>
  <path style="fill: none; fill-opacity:0; stroke-width: 2; stroke: #000000" d="M 580 496 C 580,520 600,500 600,516"/>
  <path style="fill: none; fill-opacity:0; stroke-width: 2; stroke: #000000" d="M 580 496 C 580,520 560,500 560,516"/>
  <text font-size="14.1111" style="fill: #000000;text-anchor:start;font-family:sans-serif;font-style:normal;font-weight:normal" x="520" y="492">
    <tspan x="520" y="492">xcropEnd - xImage &gt; 0</tspan>
  </text>
  <path style="fill: none; fill-opacity:0; stroke-width: 2; stroke: #000000" d="M 356 840 C 344,840 356,850 344,850"/>
  <path style="fill: none; fill-opacity:0; stroke-width: 2; stroke: #000000" d="M 344 850 C 356,850 344,860 356,860"/>
  <text font-size="14.1111" style="fill: #000000;text-anchor:start;font-family:sans-serif;font-style:normal;font-weight:normal" x="177.351" y="854">
    <tspan x="177.351" y="854">ycropEnd - yImage &lt; 0</tspan>
  </text>
  <path style="fill: none; fill-opacity:0; stroke-width: 2; stroke: #000000" d="M 352 1040 C 340,1040 356,1070 340,1070"/>
  <path style="fill: none; fill-opacity:0; stroke-width: 2; stroke: #000000" d="M 340 1070 C 352,1070 340,1100 352,1100"/>
  <text font-size="14.1111" style="fill: #000000;text-anchor:start;font-family:sans-serif;font-style:normal;font-weight:normal" x="177.297" y="1072.81">
    <tspan x="177.297" y="1072.81">ycropEnd - yImage &gt; 0</tspan>
  </text>
  <text font-size="14.1111" style="fill: #000000;text-anchor:start;font-family:sans-serif;font-style:normal;font-weight:normal" x="490" y="892">
    <tspan x="490" y="892">xcropEnd - xImage &lt; 0</tspan>
  </text>
  <path style="fill: none; fill-opacity:0; stroke-width: 2; stroke: #000000" d="M 540 896 C 540,920 560,898 560,916"/>
  <path style="fill: none; fill-opacity:0; stroke-width: 2; stroke: #000000" d="M 540 896 C 540,920 520,898 520,916"/>
  <g>
    <polygon style="fill: #f6f6b9" points="560,520 600,520 600,680 560,680 360,680 360,640 560,640 "/>
    <polygon style="fill: none; fill-opacity:0; stroke-width: 2; stroke: #000000" points="560,520 600,520 600,680 560,680 360,680 360,640 560,640 "/>
  </g>
</svg>
